<?xml version="1.0" standalone="no"?>
<!DOCTYPE svg PUBLIC "-//W3C//DTD SVG 20010904//EN"
 "http://www.w3.org/TR/2001/REC-SVG-20010904/DTD/svg10.dtd">
<svg version="1.0" xmlns="http://www.w3.org/2000/svg"
 width="170.000000pt" height="170.000000pt" viewBox="0 0 170.000000 170.000000"
 preserveAspectRatio="xMidYMid meet">
<metadata>
Created by potrace 1.14, written by Peter Selinger 2001-2017
</metadata>
<g transform="translate(0.000000,170.000000) scale(0.100000,-0.100000)"
fill="#000000" stroke="none">
<path d="M0 850 l0 -460 850 0 850 0 0 460 0 460 -850 0 -850 0 0 -460z m856
276 c38 -41 125 -135 193 -210 69 -75 129 -136 134 -136 6 0 19 7 29 17 10 9
18 11 18 5 0 -6 -4 -14 -10 -17 -18 -11 -10 -41 18 -69 26 -24 30 -25 42 -11
7 8 16 15 21 15 14 0 -3 -33 -31 -60 -14 -14 -34 -38 -44 -53 -9 -15 -24 -31
-32 -34 -14 -5 -64 32 -64 48 0 4 -29 35 -65 70 -36 34 -65 67 -65 72 0 12
-40 57 -50 57 -7 0 -22 -199 -22 -277 1 -18 -4 -33 -9 -33 -5 0 -9 80 -9 190
0 105 2 190 5 190 9 0 95 -87 95 -96 0 -5 22 -31 48 -57 l48 -47 27 28 c26 27
27 30 12 58 -8 16 -42 56 -74 89 -97 97 -231 246 -231 257 0 5 -4 6 -10 3 -6
-4 -10 -76 -11 -178 -1 -95 -5 -233 -8 -307 -7 -120 -8 -106 -9 133 -2 206 -5
267 -14 268 -7 0 -52 0 -100 -1 -51 -1 -89 3 -93 9 -3 6 -18 12 -33 12 -57 3
65 18 151 18 l87 1 0 45 0 44 -62 3 c-38 2 -63 8 -66 16 -3 9 13 12 55 12 l60
0 69 -74z m-334 -403 l-5 -223 -69 0 -68 0 0 205 c0 127 4 205 10 205 6 0 11
-76 12 -192 l3 -193 54 -3 53 -3 -7 108 c-9 144 -9 318 1 373 l8 45 7 -50 c4
-27 5 -150 1 -272z m936 -176 c3 -24 7 -26 60 -30 54 -3 53 -3 -15 -5 l-73 -2
0 36 c0 42 23 43 28 1z"/>
<path d="M1170 721 c-43 -49 -43 -48 -20 -81 26 -37 39 -37 68 0 l22 28 -22
36 c-26 40 -28 41 -48 17z"/>
</g>
</svg>
